# xmcd
#
# Track frame offsets:
#	150
#	9846
#	16523
#	23531
#	35853
#	45125
#	53506
#	63598
#	72865
#	85556
#	95290
#
# Disc length: 1353 seconds
#
# Revision: 1
# Processed by: cddbd v1.5.1PL0 Copyright (c) Steve Scherf et al.
# Submitted via: CDex 1.50Beta5
#
DISCID=6b05470b
DTITLE=うんちく商事 - 神楽舞
DYEAR=1900
DGENRE=Soundtrack
TTITLE0=瑠璃子
TTITLE1=叔父さん
TTITLE2=回想
TTITLE3=ためいき
TTITLE4=千鶴
TTITLE5=楓
TTITLE6=鬼神楽
TTITLE7=光の粒
TTITLE8=夜の風
TTITLE9=学園生活
TTITLE10=寝覚月
EXTD=
EXTT0=
EXTT1=
EXTT2=
EXTT3=
EXTT4=
EXTT5=
EXTT6=
EXTT7=
EXTT8=
EXTT9=
EXTT10=
PLAYORDER=
